<?xml version="1.0" encoding="UTF-8" standalone="no"?>
<svg
   xmlns:dc="http://purl.org/dc/elements/1.1/"
   xmlns:cc="http://creativecommons.org/ns#"
   xmlns:rdf="http://www.w3.org/1999/02/22-rdf-syntax-ns#"
   xmlns:svg="http://www.w3.org/2000/svg"
   xmlns="http://www.w3.org/2000/svg"
   viewBox="0 0 1827.88 1430.5732"
   height="1430.5732"
   width="1827.88"
   xml:space="preserve"
   id="svg2"
   version="1.1"><metadata
     id="metadata8"><rdf:RDF><cc:Work
         rdf:about=""><dc:format>image/svg+xml</dc:format><dc:type
           rdf:resource="http://purl.org/dc/dcmitype/StillImage" /></cc:Work></rdf:RDF></metadata><defs
     id="defs6" /><g
     transform="matrix(1.3333333,0,0,-1.3333333,0,1430.5733)"
     id="g10"><g
       transform="scale(0.1)"
       id="g12"><path
         id="path14"
         style="fill:#100f0d;fill-opacity:1;fill-rule:nonzero;stroke:none"
         d="m 13261,8917.33 c 0.8,-1.88 1.6,-3.77 2.4,-5.67 -0.1,-0.03 -0.1,-0.06 -0.1,-0.1 -0.8,1.87 -1.6,3.79 -2.3,5.77 v 0 z m 280.8,112.94 c -1.1,-0.5 -2.2,-0.96 -3.3,-1.38 1.1,0.46 2.2,0.92 3.3,1.38 v 0 z m -216.8,860.91 c 14.7,-83.39 30.6,-166.49 47.2,-249.53 17.9,-89 37,-177.76 55,-266.76 16.4,-81.1 30.3,-162.43 42.9,-244.24 0.4,-2.43 0.8,-4.87 1.2,-7.31 3.7,-33.05 8.3,-66.22 9.8,-99.42 -13.3,-1.21 -26.6,-2.56 -39.9,-4.2 -30.1,-3.72 -59.6,-8.44 -89.2,-14.45 -21.8,-4.43 -43.4,-9.5 -65,-14.63 -33.2,-7.84 -72.7,-13.98 -97.4,-38.75 -11.1,-11.26 -15.7,-27.95 -11.4,-43.29 13.5,-48.65 65.9,-61.28 108.8,-72.6 25.1,-6.66 50.2,-12.91 75.5,-18.99 0.2,0 0.3,0.24 0.2,0.35 -18.8,14.5 -37.6,29.63 -55.3,45.81 14.9,-3.46 29.8,-7.09 44.6,-10.66 45.8,-11.08 91,-23.65 135.5,-39.21 26.4,-9.21 57.8,-16.64 85.7,-14.87 45.3,2.89 89.2,26.13 112.2,66.71 16.6,29.31 23.5,59.62 23.6,93.06 0.2,31.44 -6.6,63.64 -12.4,94.31 -7.2,38.04 -15.5,75.9 -22,114 -29.1,169.21 -60.6,338.3 -94,506.75 -16.5,82.87 -31.9,166.03 -49.3,248.71 -11.8,55.8 -23.5,111.63 -35,167.43" /><path
         id="path16"
         style="fill:#100f0d;fill-opacity:1;fill-rule:nonzero;stroke:none"
         d="m 13036.7,8734.55 c -15.2,-25.18 -30.5,-50.3 -47.8,-74.12 -13.3,-15 -27.9,-28.01 -43.3,-40.51 -34.2,-25.27 -70.1,-47.13 -108.4,-65.44 -13.4,-4.79 -26.8,-8.5 -40.7,-11.37 -19.8,-1.7 -39.5,-1.88 -59.3,-0.3 -26,5.08 -51.4,12.2 -76.2,21.45 -9.9,4.86 -19.5,10.04 -28.8,15.74 5.5,1.65 -5.4,-1.7 0,0 -30,20.82 -51.4,44.7 -54.1,89.87 -8.1,3.24 -16.2,6.35 -24.7,8.68 -33,8.96 -69.2,-0.29 -93.4,-24.48 -26.4,-26.42 -25.7,-66.35 -15.4,-99.61 9.6,-31.02 26.1,-57.8 45.3,-83.63 9.8,-13.21 19.9,-25.78 31,-37.87 14.3,-15.63 33.5,-27.72 51.4,-38.98 29.3,-18.4 64.2,-30.08 97.4,-38.75 33.6,-8.73 69.1,-11.32 103.5,-9.08 45.1,2.95 84.8,15.04 125.6,33.56 29,13.09 54.6,35.97 78.6,56.26 23.7,20.11 43.4,43.12 62.3,67.71 17.7,23 33.5,46.36 45,73.13 12.1,28.31 17.9,57.86 20.8,88.53 5.4,57.56 2.2,116.25 -9.4,172.86 0,0.11 -0.1,0.14 -0.2,0.14 0,0 -0.1,-0.02 -0.1,-0.07 -11.2,-22.95 -23.3,-45.65 -36.9,-67.24" /><path
         id="path18"
         style="fill:#100f0d;fill-opacity:1;fill-rule:nonzero;stroke:none"
         d="m 11895.6,6319.12 c 0,-0.1 0,-0.18 0,-0.28 0,0.2 0,0.41 -0.1,0.61 0.1,-0.11 0.1,-0.22 0.1,-0.33 v 0 z m -224.1,227.91 c 0.3,-0.1 0.6,-0.19 0.9,-0.3 0,-0.04 0,-0.07 0.1,-0.11 -0.4,0.13 -0.7,0.27 -1,0.41 v 0 z m 221.6,703.88 c -0.4,-3.3 -0.8,-6.59 -1.3,-9.88 0.5,3.29 0.9,6.59 1.3,9.88 v 0 z m -76.3,1762.95 c -9.7,-1.42 -13,-8.97 -13.7,-18.76 -2,-28.37 6.9,-55.85 11.9,-83.51 0,0.02 0,0.04 0,0.05 22.3,-167.95 42.4,-336.02 63.4,-504.14 4.3,-34.2 9.3,-68.35 12.6,-102.68 11.2,-116.01 20.8,-232.2 26.1,-348.62 5.3,-115.78 7.4,-231.9 5.2,-347.74 -2.3,-119.3 -13.5,-238.09 -29,-356.33 -9.2,-66.96 -20.1,-133.49 -33.2,-199.84 -6.7,-33.85 -13.9,-67.58 -21.3,-101.26 -5.4,-25 -10.4,-50.19 -16.7,-74.96 -15.1,-58.62 -30.3,-117.19 -45.4,-175.82 -1.4,-5.34 -2.8,-10.69 -4.2,-16.03 -5,3.53 -10.1,6.65 -15.4,9.25 -18.8,9.32 -30.3,11.38 -51.1,13.8 -14.7,1.71 -25.7,0.3 -40.9,-2.12 -26,-4.07 -49.6,-18.4 -66.8,-38.22 -21.9,-25.24 -34.1,-56.27 -44.7,-87.58 -5.2,-15.51 -6.7,-33.8 -8.6,-49.78 -1.6,-13.09 -2.7,-26.01 -3.3,-39.16 -1.1,-28.37 3.4,-57.27 8.5,-85.05 5.2,-28.54 18.3,-57.21 32.9,-82.04 2.3,-3.06 4.8,-6.19 7.1,-9.26 6.5,-9.44 13.8,-18.28 21.8,-26.54 8.5,-7.37 17.3,-14.39 26.5,-21.05 9.5,-5.61 19.6,-10.21 30.1,-13.86 14.5,-2.19 28.3,-4.84 42.9,-3.72 10.6,0.85 21.1,2.68 31.1,5.95 0.8,-5.7 1.6,-11.4 2.3,-17.1 10,-76.6 18,-153.77 22.2,-230.84 2.8,-51.37 5.6,-102.68 8.4,-154.05 4,-72.72 9,-145.38 11.2,-218.16 3,-105.51 7.9,-513.07 13.7,-618.46 4.3,-79.15 7.3,-158.42 11.6,-237.63 7.4,-136.82 14.8,-273.65 19.7,-410.66 2.5,-70.71 5.3,-141.37 6.8,-212.15 1.5,-74.9 5.7,-149.86 5.6,-224.77 0,-0.23 0.4,-0.29 0.4,-0.05 20.6,76.37 29.6,155.7 39.3,234.09 11.3,91.17 20.1,182.53 27.9,274.07 6.9,82.39 10.7,165.14 14.9,247.71 4.5,86.81 7.4,173.69 10.1,260.5 1.8,59.81 2.6,119.61 3.2,179.48 0.5,54.55 0.7,411.27 0.5,465.82 -0.1,24.3 0.5,48.72 -0.6,72.96 -3.5,86.64 -7.6,173.28 -11.3,259.91 -1.5,33.15 -2.9,66.36 -4.4,99.5 -4.3,98.44 -15.6,196.48 -28.5,294.11 -0.5,3.4 -0.9,6.82 -1.4,10.23 0.5,-3.31 0.9,-6.6 1.3,-9.9 -0.9,7.01 -1.8,14.03 -2.8,21.03 0.1,-0.67 0.2,-1.33 0.3,-2 -6.9,51.47 -14,102.8 -26.2,153.35 -1.8,7.82 -4,15.58 -6.3,23.3 44,177.28 86.3,355.17 118.7,534.92 22,121.56 36.8,244.82 46.9,367.91 9.9,121.15 11.5,242.93 6.3,364.37 -5.1,120.85 -17.6,241.1 -34.7,360.83 -10.2,71.42 -21.2,143.02 -36.4,213.62 -21.6,99.85 -43.7,199.58 -66.2,299.25 -17.9,79.51 -38.8,158.36 -58.5,237.46 -1.1,4.24 -2.1,8.49 -3.2,12.79 -6.8,27.37 -18.9,53.09 -23.5,80.98 0,-0.03 0,-0.06 0,-0.09 -0.6,5.35 -0.4,10.59 0.7,15.9 0,-0.24 0,-0.48 -0.1,-0.77 0.8,2.02 1.5,4.04 2.3,6.06 0.5,0.32 1.1,0.62 1.6,0.94 0.6,0.19 1.3,0.37 1.9,0.55 2.6,-5.88 5.2,-11.76 7.7,-17.7 0,0.01 0,0.02 0,0.04 1,-2.43 1.9,-4.86 2.8,-7.23 0.2,-0.24 0.5,-0.18 0.5,0.06 -2.5,9.32 -5.3,18.4 -8.2,27.54 -0.3,0.91 -1,1.34 -1.8,1.34 -0.2,0 -0.3,-0.01 -0.5,-0.04 v 0 0" /><path
         id="path20"
         style="fill:#100f0d;fill-opacity:1;fill-rule:nonzero;stroke:none"
         d="m 11136.5,4026.93 c 0.1,-0.06 0.3,-0.12 0.5,-0.18 -0.2,0.06 -0.4,0.11 -0.5,0.18 v 0 z m -25.7,4.53 c -0.1,-0.05 -0.1,-0.41 0.1,-0.35 4.7,0.52 9.6,0.59 14.4,0.21 3.5,-1.42 7.1,-2.8 10.6,-4.17 6.1,-3.01 11.9,-6.58 17.4,-10.62 11.4,-9.02 21.9,-19.01 32.4,-29.13 -60.7,5.71 -121.6,7.75 -182.6,6.85 -156,-2.36 -310.4,-24.18 -461.5,-62.99 -0.2,-0.06 -0.2,-0.29 0,-0.35 116.5,-28.2 234.1,-51.02 352.4,-70.19 118.9,-19.19 238.9,-31.39 359.3,-31.94 11.5,-2.55 23,-4.9 34.6,-7.16 10.4,-1.94 21.8,-4.83 32.1,-4.48 9.5,0.35 19,0.83 28.4,1.3 12.7,0.64 25.5,1.59 38.2,2.59 11.8,0.94 26,2.36 37.2,4.78 9.5,1.47 18.4,4.54 26.9,9.32 12.5,7.37 18.5,16.33 27,27.66 20.9,27.78 6.9,80.44 -24.8,94.48 -8.9,3.95 -17.6,8.02 -27.1,10.39 -6.6,1.59 -14,2.11 -20.8,3.06 -13.6,1.91 -27.2,3.54 -40.8,5.18 v 0 c -0.3,0.04 -0.5,0.09 -0.8,0.12 -11.4,2.08 -26.6,6.12 -38.9,6.85 -23.4,4.65 -46.6,10.16 -69.8,16.22 -21,5.48 -41.1,14.15 -61.5,21.58 -10.6,3.84 -21.2,7.43 -32.1,10.56 -7.2,2.06 -15.5,4.13 -22.9,4.42 -2.4,0.11 -4.5,0.17 -6.4,0.17 -7.6,0 -12.1,-1.01 -21,-4.36 v 0 0" /><path
         id="path22"
         style="fill:#100f0d;fill-opacity:1;fill-rule:nonzero;stroke:none"
         d="m 10573.8,4127.01 c -15.8,-40.69 -29.6,-81.98 -41,-124.15 -13.1,-48.53 -19.1,-98.91 -22.4,-148.92 -3.2,-47.77 0.3,-95.13 5.5,-142.6 3.7,-33.45 9,-66.77 15,-99.91 8.7,-48.25 21.7,-98.79 51.2,-138.55 0.1,-0.18 0.4,-0.06 0.3,0.18 -1.6,6.53 -2.9,13.06 -4.1,19.69 -4,43.21 0,87.16 4,130.3 2.9,31.31 4.8,62.75 6.4,94.12 2.5,45.65 1.8,91.12 -0.1,136.77 -1.9,47.49 -5.4,94.9 -7.4,142.38 -1.9,43.58 -4.1,87.17 -7.1,130.63 0,0.14 -0.1,0.21 -0.2,0.21 0,0 -0.1,-0.04 -0.1,-0.15 v 0 0" /><path
         id="path24"
         style="fill:#100f0d;fill-opacity:1;fill-rule:nonzero;stroke:none"
         d="m 12542.8,3901.56 c -0.6,-0.51 -1.3,-1 -1.9,-1.48 0.6,0.49 1.2,0.98 1.9,1.48 v 0 z m 3,4.9 c 0,-0.06 0,-0.13 0,-0.19 -1.9,-0.85 -3.9,-1.62 -5.9,-2.31 2,0.83 4,1.66 5.9,2.5 v 0 z m -5.9,0.95 c -1,-0.14 -1.9,-0.26 -2.8,-0.38 0.9,0.13 1.8,0.25 2.8,0.38 v 0 z m 16.9,9.71 c -1.6,-2.61 -3.5,-5.06 -5.5,-7.36 0,-0.02 -0.1,-0.03 -0.2,-0.05 1.9,2.47 3.8,4.94 5.7,7.41 v 0 z m 77.4,248.59 c -17.5,-8.96 -30,-20.58 -38.3,-38.51 -4.7,-8.43 -7.9,-17.4 -9.6,-26.84 -1.6,-6.54 -2,-13.51 -3.5,-20.11 -3.2,-14.57 -6.2,-29.14 -9.3,-43.7 -8.9,-42.39 -14.1,-86 -26.8,-127.46 -42.5,-2.56 -85.5,-0.69 -128,-0.05 -48.4,0.65 -96.8,1.35 -145.2,1.29 -17,0 -34,1.48 -51.1,2.19 -22.4,1 -45.2,0.29 -67.6,2.24 -53.9,4.59 -108.1,7.73 -162.1,11.15 -0.2,0.06 -0.3,-0.24 -0.2,-0.35 61.7,-34.39 124.3,-67.18 190.1,-92.78 28.2,-10.97 56.4,-22.47 85.5,-30.96 32.2,-9.44 64.6,-18.71 97.4,-26.31 33.2,-7.67 66.5,-14.56 100,-20.75 14.2,-2.66 28.6,-4.43 43,-6.44 29.2,-4.07 55.8,-6.89 85,-1.42 25.6,4.84 48.1,15.64 68,32.5 0.3,0.33 0.7,0.66 1.1,0.99 1.8,-8.65 3.6,-17.29 5.5,-25.94 10.8,-49.3 22.3,-98.48 36,-147.03 7,-24.71 14.9,-48.95 23.5,-73.19 11.1,-31.2 26,-63.28 52.9,-83.39 0.2,-0.13 0.3,0.12 0.3,0.23 -3.9,5.25 -7,10.91 -9.2,16.99 0.1,-0.3 0.2,-0.59 0.4,-0.89 -3.8,11.33 -6,22.66 -8,34.44 -5.4,43.83 -6.7,88.38 -7.5,132.53 -1,52.49 -2.4,105.04 -4.3,157.47 -3.7,104.75 -1.7,209.49 -13.1,313.89 -2.7,25.24 -11.5,46.77 -34.5,60.21 -10.9,6.38 -22.5,9.3 -34.1,9.3 -12.3,0 -24.7,-3.31 -36.3,-9.3 v 0 0" /><path
         id="path26"
         style="fill:#100f0d;fill-opacity:1;fill-rule:nonzero;stroke:none"
         d="m 8314.37,7655.38 c 6.45,-9.88 12.44,-20.01 17.93,-30.45 0.67,-2.28 1.32,-4.57 1.91,-6.88 0.24,-7.73 0.13,-15.42 -0.28,-23.15 -2.91,-13.44 -6.71,-26.5 -11.31,-39.52 -11.55,-23.85 -25.07,-46.21 -40.45,-67.84 -10.16,-12.16 -20.72,-23.9 -31.65,-35.25 8.99,55.27 21.52,110.28 41.09,162.74 6.83,13.99 14.31,27.4 22.76,40.35 v 0 z M 11050.9,9090.5 c -168.6,-27.43 -337.3,-54.97 -505.3,-85.34 -156.1,-28.2 -311.7,-58.92 -466.8,-92.48 -100.57,-21.77 -201.26,-43.53 -301.87,-65.29 -69.65,-15.1 -138.6,-34.74 -207.66,-52.2 -83.46,-21.05 -166.85,-42.11 -250.31,-63.22 -26.12,-6.61 -51.9,-15.4 -77.73,-23.12 -55.68,-16.52 -111.35,-33.09 -167.03,-49.66 -70.94,-21.12 -142.55,-40.82 -213.03,-63.46 -94.78,-30.44 -189.56,-60.93 -284.27,-91.36 -154.41,-49.6 -307.45,-103.1 -460.86,-155.7 -27.01,-9.26 -53.38,-21.18 -79.86,-31.73 -55.02,-21.95 -110,-43.88 -164.96,-65.82 -153.81,-61.34 -304.68,-130.29 -448,-213.57 -97.32,-56.61 -188.85,-124.73 -267,-205.89 -78.73,-81.74 -137.12,-192.33 -129.69,-308.69 15.92,-250.01 259.57,-403 478.79,-462.51 57.86,-15.69 117.78,-23.65 177.17,-30.31 61.34,-6.9 123.32,-7.44 184.78,-2.19 37.53,3.21 74.7,8.85 111.31,16.75 5.49,-57.85 12.37,-115.59 20.27,-173.33 19.41,-141.79 43.99,-282.98 73.14,-423.11 23.17,-111.53 46.29,-223.06 69.47,-334.59 10.61,-50.96 22.41,-101.2 34.85,-151.75 27.37,-111.17 54.74,-222.41 82.1,-333.58 39.87,-162.02 81.4,-323.61 122.38,-485.39 40.05,-158.3 78.62,-468.04 117.66,-626.56 17.58,-71.49 31.14,-144.15 46.36,-216.22 14.8,-70.42 29.67,-140.55 42.06,-211.44 14.21,-81.75 31.79,-162.96 45.35,-244.77 8.91,-53.6 18.28,-107.1 28.13,-160.53 5.72,-31.2 12.62,-213.42 17.63,-244.74 12.69,-80.21 28.67,-159.89 41.11,-240.1 14.1,-90.71 29.56,-181.36 45.42,-271.72 14.97,-85.06 30.22,-321.34 43.79,-406.67 -0.29,-1.31 -0.57,-2.64 -0.86,-3.97 -6.3,-29.67 -10.61,-66.64 0.59,-95.36 7.43,-19.11 23.36,-29.2 44,-24.95 11.67,2.41 19.29,7.31 26.6,16.69 4.6,4.95 8.2,10.61 10.74,16.92 6.02,11.78 5.67,21.49 4.87,34.32 9.29,67.26 10.1,287 9.92,354.8 -0.23,77.62 -0.35,155.05 -3.06,232.67 -5.19,148.33 -14.33,448.56 -34.33,595.72 1.18,-8.73 2.36,-17.46 3.55,-26.13 -12.98,96.61 -26.2,193.15 -41.47,289.47 -13.62,85.81 -32.08,170.98 -49.6,256.08 -28.78,140.07 -59.39,279.97 -91.94,419.28 -37.81,161.66 -75.91,474.34 -112.66,636.29 -36.85,162.26 -75.02,324.27 -108.75,487.23 -22.12,106.75 -44.24,213.5 -66.36,320.19 -9.49,45.88 -18.51,91.41 -26.18,137.6 -35.18,212.61 -71.71,424.96 -100.86,638.53 -13.87,106.85 -25.01,214.04 -28.66,321.81 -0.19,5.89 -0.4,11.77 -0.58,17.65 49.35,27.67 94.83,61.18 139.13,96.3 49.89,39.57 93.41,86.93 130.98,138.18 33.68,45.95 59.87,97.26 75.97,151.99 8.91,30.43 12.09,63.52 13.39,95.07 1.94,46.07 -12.56,87.94 -30.2,129.34 -22.76,53.26 -57.62,103.04 -102.15,140.43 -30.31,25.48 -62.75,44.88 -102.39,51.78 -43.7,7.55 -89.34,8.91 -131.28,-7.9 -20.29,-8.14 -37.51,-15.33 -55.61,-26.48 -17.58,-10.79 -33.22,-24.83 -49.19,-37.87 -25.31,-20.64 -44.83,-49.01 -62.99,-75.78 -18.16,-26.9 -30.67,-58.8 -42.65,-88.7 -11.08,-27.78 -19.81,-56.09 -27.18,-85.05 -28.83,-112.83 -36.1,-230.1 -34.19,-346.16 -33.16,-9.98 -66.87,-18 -101.24,-23.74 -75.91,-8.24 -152.16,-6.32 -227.95,2.58 -67.55,10.58 -132.71,28.1 -196.21,53.23 -42.43,19.27 -82.07,42.18 -119.73,69.57 -22.94,18.89 -44.23,39.11 -63.39,61.73 -10.55,15.44 -19.84,31.35 -28.07,48.14 -6.51,17.56 -11.63,35.31 -15.23,53.71 -0.84,13.33 -0.71,26.39 0.28,39.67 4.12,21.81 10.04,42.9 17.59,63.82 11.43,23.64 25.35,45.46 40.93,66.71 44.34,54.84 95.07,101.87 150.24,145.73 133,98.4 282.37,172.07 432.2,240.91 81.61,33.69 163.23,67.39 244.79,101.08 65.05,26.9 131.59,48.95 198.05,72.07 71.13,24.72 141.96,50.84 213.74,73.85 101.32,32.43 202.71,64.87 304.09,97.31 161.19,51.61 324.03,97.97 486.28,145.97 53.73,15.93 107.82,29.49 162.13,43.23 105.22,26.66 210.5,53.26 315.71,79.92 63.64,16.1 128.16,28.84 192.27,42.82 81.02,17.75 161.92,35.33 242.92,53.19 163.7,36.22 326.8,76.21 489.4,117.37 142.7,36.1 284.5,74.85 426.1,115.3 135.4,38.7 271.3,75.15 405.5,118.43 0.3,0.06 0.1,0.36 -0.1,0.36 -161.3,-25.6 -323.2,-46.48 -484.3,-72.66 v 0 0" /><path
         id="path28"
         style="fill:#100f0d;fill-opacity:1;fill-rule:nonzero;stroke:none"
         d="m 10120.9,7649.77 c -2.3,-0.32 -4.7,-0.63 -7,-0.95 2.3,0.32 4.7,0.63 7,0.95 v 0 z m -5854.3,535.47 c -0.25,-1.89 -0.51,-3.78 -0.77,-5.67 0.19,1.91 0.45,3.8 0.77,5.67 v 0 z m 5.23,12.08 c 0.87,-2.09 1.74,-4.17 2.61,-6.25 -0.94,2.06 -1.8,4.14 -2.61,6.25 v 0 z m 6.44,9.87 c -0.37,-0.49 -0.75,-0.98 -1.12,-1.47 0.34,0.47 0.69,0.94 1.03,1.4 0.03,0.02 0.06,0.04 0.09,0.07 v 0 z m -4.07,0.63 c -1.02,-2.43 -2.05,-4.88 -3.07,-7.32 -0.05,0.09 -0.1,0.19 -0.15,0.29 0.95,2.38 2.02,4.72 3.22,7.03 v 0 z m 7.14,3.36 c -0.99,-1.29 -1.98,-2.58 -2.97,-3.87 -0.04,-0.03 -0.08,-0.05 -0.11,-0.08 1.01,1.33 2.03,2.65 3.08,3.95 v 0 z m 135.6,44.44 c 29.7,-6.37 58.55,-15.66 86.82,-26.72 38.7,-17.71 76.82,-36.47 111.79,-60.83 24.88,-20.79 48.15,-43.59 69.35,-68.11 13.72,-21.08 25.13,-43.03 35.47,-65.87 7.05,-18.46 12.49,-36.81 16.4,-56.1 1.56,-22.26 1.5,-44.28 -0.2,-66.55 -3.03,-15.51 -7.06,-30.53 -12.15,-45.63 -4.46,-9.15 -9.23,-18.02 -14.43,-26.67 -85.65,38.21 -169.85,82.07 -245.08,137.95 -45.36,36.7 -87.7,76.77 -124.36,122.21 -12.64,16.69 -25.03,33.55 -37.27,50.48 -11.48,15.94 -22.15,31.5 -31.07,48.62 5.16,5.62 10.45,10.79 16.09,15.83 17.49,11.98 35.53,22.66 54.5,32.01 12.01,4.02 23.95,7.2 36.28,9.69 12.75,0.66 25.22,0.55 37.86,-0.31 v 0 z m -91.37,197.08 c -18.99,-3.6 -37.33,-11.91 -54.91,-19.64 -20.23,-8.85 -38.75,-19.17 -57.15,-31.38 -26.95,-17.87 -52.84,-38.87 -74.37,-62.93 -24.42,-27.42 -40.52,-60.45 -49.24,-95.96 -4.73,-19.34 -5.73,-43.82 -0.71,-63.22 4.12,-15.81 10.61,-30.2 17.86,-44.77 5.96,-12.03 15.93,-23.23 24.07,-33.85 13.74,-17.99 28.37,-33.79 44.53,-49.6 22.47,-22 43.41,-45.53 65.76,-67.65 23.94,-23.59 50.31,-45.06 76.49,-66.05 59.22,-47.42 123.45,-86.64 191.03,-120.91 32.88,-16.65 66.3,-32.26 100.11,-46.95 -3.67,-1.92 -7.4,-3.78 -11.19,-5.61 -43,-16.81 -87.1,-30.03 -132.66,-37.92 -102.22,-11.51 -205.01,-9.78 -307.65,-2.3 -69.48,5.08 -139.01,10.15 -208.55,15.22 -102.85,7.49 -205.83,12.98 -308.86,18.64 -52.14,2.83 -104.34,5.66 -156.47,8.55 -45.89,2.48 -394.17,2.48 -440.06,3.72 -99.79,2.71 -199.58,5.42 -299.31,8.14 -117.08,3.24 -536.3,7.9 -653.38,9.49 -121.43,1.6 -242.93,0.06 -364.31,-3.36 -105.1,-2.89 -210.14,-9.61 -315.06,-16.69 -103.45,-6.96 -206.78,-15.63 -309.99,-25.6 -146.327,-14.09 -292.769,-29.19 -438.152,-51.72 -0.175,-0.06 -0.175,-0.36 0,-0.36 217.454,-33.44 436.972,-55.84 656.082,-75.25 212.73,-18.88 425.76,-37.33 639.08,-49.13 193.51,-10.67 689.53,-14.21 883.16,-21.05 73.43,-2.6 146.86,-5.19 220.29,-7.79 40.57,-1.41 383.6,-1.77 424.18,-4.36 120.14,-7.62 240.28,-15.22 360.42,-22.83 106.4,-6.72 212.73,-16.34 319.07,-24.54 43.76,-3.36 87.82,-4.6 131.76,-5.48 79.44,-1.65 158.65,5.96 236.91,19.52 29.26,5.13 57.39,15.1 85.29,24.89 35.86,12.56 70.89,28.08 104.86,45.06 29.61,14.8 55.5,37.86 80.63,59.09 18.22,15.4 34.34,32.76 49.47,51.02 22.32,-7.06 44.71,-13.86 67.13,-20.46 146.14,-43.06 296.12,-73.78 446.34,-98.38 150.87,-24.65 302.91,-41.76 455.26,-54.08 77.97,-6.37 155.99,-11.97 234.14,-15.4 71.42,-3.18 142.85,-6.36 214.21,-9.55 88.29,-3.89 176.58,-7.9 264.88,-11.62 228.65,-9.49 457.31,-19.05 686.09,-27.25 70.6,-2.53 141.25,-5.07 211.9,-7.61 24.08,-0.88 48.08,-1.76 72.14,-1.82 135.35,-0.42 270.71,-0.89 406.13,-1.3 95.72,-0.35 191.38,3.66 287.05,6.19 107.33,2.89 214.56,6.49 321.84,10.86 51.37,2.06 102.68,4.48 153.99,6.95 46.59,2.3 93.25,3.37 139.78,5.61 109.87,5.37 219.57,12.38 329.34,19.46 108.28,7.02 216.5,16.04 324.73,24.89 99.14,8.08 198.52,17.46 296.9,32.55 208.89,32.03 415.95,73.08 622.65,116.66 108.6,22.85 217,45.46 326.5,62.61 44.5,5.64 89,12.2 134,13 39.7,0.71 79.5,-1.29 119.2,-2.24 0.3,0 0.3,0.36 0.1,0.36 -34,4.77 -68,9.37 -102,13.68 -51.4,6.49 -102.8,3.83 -154.4,2.07 -63.7,-2.25 -127.4,-10.62 -190.5,-18.58 -136.8,-17.15 -273.3,-37.82 -409.8,-57.15 -45.1,-6.09 -90.3,-12.27 -135.4,-18.51 -34.26,-4.54 -68.48,-9.13 -102.7,-13.8 0.53,0.07 1.05,0.15 1.58,0.22 -104.4,-12.33 -208.62,-25.01 -313.42,-33.26 -110.76,-8.67 -221.51,-16.63 -332.4,-23.89 -99.55,-6.48 -199.35,-12.8 -299.08,-17.04 -111.41,-4.72 -222.88,-8.5 -334.29,-13.57 -211.08,-9.55 -422.35,-13.51 -633.55,-18.75 -38.62,-1.01 -77.49,0.35 -116.12,0.53 -76.86,0.41 -153.7,0.82 -230.61,1.18 -44.18,0.23 -88.35,0.47 -132.58,0.65 -37.98,0.23 -76.09,2.94 -114.01,4.36 -451.24,17.34 -902.31,37.98 -1353.37,59.33 -58.21,2.77 -116.43,8.2 -174.52,12.98 -89.82,7.31 122.69,16.36 33.32,27.96 -221.24,30.69 -743.52,73.53 -955.67,142.86 3.21,7.15 6.25,14.42 9.19,21.8 6.55,16.57 11.91,32.85 16.45,50.07 4.6,17.28 6.49,36.92 8.55,54.38 3.48,29.85 3.37,58.98 0.83,88.94 -1.65,19.94 -5.13,40.46 -8.97,60.16 -4.54,23.77 -14.09,46.24 -23.76,68.24 -12.57,28.66 -26.01,56.74 -41.82,83.75 -17.58,30.13 -40.81,56.68 -65.17,81.45 -20.11,20.52 -40.64,39.75 -63.23,57.5 -14.86,11.68 -29.72,22.82 -45.35,33.38 -17.81,11.97 -37.57,21.23 -56.85,30.67 -67.95,33.38 -139.49,62.81 -215.51,70.3 -8.86,0.87 -17.66,1.27 -26.41,1.27 -27.41,0 -54.4,-3.86 -81.76,-9.05 v 0 0" /><path
         id="path30"
         style="fill:#100f0d;fill-opacity:1;fill-rule:nonzero;stroke:none"
         d="M 1229.82,7952.49 C 1083.44,7831.41 938.586,7707.68 800.105,7577.45 682.734,7467.1 568.652,7353.84 458.305,7236.61 422.648,7212.41 388.031,7186.7 353.934,7160.24 297.668,7116.65 243.703,7070.23 192.449,7020.75 145.023,6974.99 103.625,6923.11 63.8789,6870.59 52.2578,6856.05 40.8125,6841.42 29.6133,6826.54 17.0508,6809.78 9.20703,6787.91 3.95703,6767.97 -6.36328,6728.4 3.42578,6681.51 34.3281,6653.08 c 9.1407,-8.31 18.875,-16.04 29.3711,-22.59 25.2461,-15.57 58.0348,-19.11 86.4058,-11.26 8.907,3.77 17.813,7.49 26.774,11.26 16.812,9.97 30.199,23.36 40.164,40.23 3.121,4.18 6.223,8.37 9.305,12.56 50.183,59.22 102.785,115.98 154.48,173.93 49.067,54.96 97.664,110.34 145.324,166.55 105.938,124.9 208.719,252.72 308.661,382.56 24.507,22.91 49.343,45.47 74.816,67.27 0.176,0.12 -0.063,0.36 -0.234,0.29 -11.641,-5.1 -23.243,-10.31 -34.813,-15.59 3.629,4.76 7.246,9.53 10.863,14.3 119.025,156.94 233.905,316.83 344.675,479.73 0.08,0.12 -0.01,0.25 -0.14,0.25 -0.05,0 -0.11,-0.02 -0.16,-0.08 v 0 0" /><path
         id="path32"
         style="fill:#100f0d;fill-opacity:1;fill-rule:nonzero;stroke:none"
         d="m 8771.54,3721.62 c 5.84,-93.42 11.37,-337.98 17.45,-431.4 5.08,-78.15 12.68,-156.12 19.17,-234.15 3.59,-43.29 3.66,-86.81 4.77,-130.16 1.07,-41.46 1.77,-82.92 2.78,-124.39 1.71,-73.48 3.83,-297.99 6.54,-371.42 6.38,-173.39 15.81,-497.76 20.7,-671.15 2.19,-76.56 4.79,-153.11 5.2,-229.66 0.47,-87.41 -0.35,-174.63 -2.48,-262.04 -1.54,-64.41 -6.25,-279.707 -6.43,-344.168 -0.06,-31.152 2.6,-62.473 3.77,-93.609 1.3,-35.262 3.07,-70.481 4.25,-105.672 4.1,-125.699 8.4,-251.399 11.54,-377.098 -2.43,-13.601 -4.15,-27.5 -5.94,-41.402 -0.1,-0.801 -0.2,-1.602 -0.31,-2.399 -1.4,-5.902 -2.26,-12.101 -2.28,-18.8 -0.56,-4.801 -1.1,-9.602 -1.6,-14.5 -0.58,-5.7 -1,-11.5 -1.47,-17.301 -1.18,-13.801 0.83,-27 3.36,-40.598 5.02,-26.203 30.2,-48.101 54.97,-54.902 34.39,-9.5 70.6,5.898 88.88,36.199 13.44,22.301 14.92,52.703 17.63,78.102 1.23,11.5 2.02,20.8 -0.61,32.199 32.09,-12 63.66,-21.301 97.93,-25 27.49,-3 55.67,-2.5 83.34,-2.699 27.36,-0.2 54.78,0 82.16,0.398 0.23,0 0.23,0.301 0.06,0.301 -49.53,16.301 -98.64,33.402 -147.45,51.699 -30.14,13.5 -56.49,31.602 -82.83,51.203 -12.29,9.699 -24.62,19.399 -37.21,28.699 2.7,129.5 3.95,259.2 1.25,388.661 -1.65,80.917 -4.18,313.037 -10.32,393.717 -6.13,80.27 -11.97,160.54 -17.69,240.87 -11.68,165.31 -24.12,330.63 -40.75,495.54 -17.05,169.68 -36.16,490.15 -53.02,659.82 -6.08,61.05 -11.04,273.28 -16.63,334.39 -3.43,37.1 -6.26,74.31 -10.98,111.29 -4.19,32.38 -8.96,64.69 -14.09,97.02 -23.54,147.26 -46.53,445.73 -73.31,592.47 -0.03,0.11 -0.1,0.16 -0.18,0.16 -0.09,0 -0.17,-0.08 -0.17,-0.22 v 0 0" /><path
         id="path34"
         style="fill:#100f0d;fill-opacity:1;fill-rule:nonzero;stroke:none"
         d="m 9006.41,422.801 c -83.57,-6 -166.73,-14.5 -249.47,-27.801 -0.19,0 -0.19,-0.297 -0.06,-0.398 78.31,-34.602 156.73,-69 236.28,-100.7 27.18,-12.101 54.54,-23.902 81.96,-35.5 -53.69,-19.199 -106.48,-41 -159.41,-62.101 -75.79,-30.399 -151.64,-60.801 -228.2,-89.199 -9.55,-3.602 -19.17,-7.102 -28.84,-10.5004 -0.17,-0.1016 -0.17,-0.3008 0,-0.4024 77.86,-14.7969 156.54,-26.8984 235.15,-36.6992 78.56,-9.7969 157.3,-16.0977 236.1,-24 85.45,-8.3984 171.21,-14.1992 256.78,-21.3984 C 9471.28,7 9556.92,1.60156 9641.85,0.601563 c 37.86,-0.5 76.67,-3.300783 112.88,10.500037 30.37,8.5 56.74,23.8984 79.09,46 30.14,30.1992 57.79,82.3984 52.43,126.6994 -0.17,1.601 -0.41,3.301 -0.59,4.898 -2.06,15.504 -4.12,30.903 -6.19,46.301 -8.31,29.402 -23.18,55 -44.77,76.801 -33.79,33.801 -76.07,48.601 -123.03,51 -32.53,1.5 -64.62,4.898 -97.01,8.301 -12.73,1.8 -25.49,3.398 -38.24,5.097 -127.33,20.801 -256.81,41.5 -385.88,45.903 -37.95,1.3 -76.32,3 -114.57,3 -23.27,0 -46.49,-0.602 -69.56,-2.301 v 0 0" /><path
         id="path36"
         style="fill:#100f0d;fill-opacity:1;fill-rule:nonzero;stroke:none"
         d="m 12272.9,10305.5 c 73.1,132.6 187.9,247 338.8,283.5 75.6,18.2 154.2,14.6 227,-13.3 65.7,-25.2 137.6,-49 194.9,-91.1 57.8,-42.6 102,-106.3 140.4,-166.1 20,-31.1 38.2,-63.1 55.7,-95.5 1.7,-3.2 10.2,-21.6 4,-7.7 -6,13.4 5.5,-14.8 7.3,-19.9 35.8,-99 60.1,-202.82 86,-304.72 26,-102.2 79.3,-192.92 109.6,-294.8 18.3,-61.43 102.8,-45.91 107.8,14.58 18.6,229.7 -29.1,458.84 -118.9,670.14 -59.8,140.8 -172.6,288.9 -309.2,361.6 -155.4,82.8 -349.6,119 -516.6,52.8 -168.6,-67 -284.6,-214.5 -341.4,-383.4 -2.8,-8.6 10.3,-14 14.6,-6.1 v 0" /></g></g></svg>