<svg xmlns="http://www.w3.org/2000/svg" width="0" height="0" style="position:absolute" aria-hidden="true" focusable="false">
  <!-- Pós-tratamento oncológico · sprite de ícones (traço 1.8, currentColor). Uso: <use href="/images/sobrevivencia/sprite.svg#sv-i-moon"/> -->
  <defs>
    <!-- Corpo / efeitos tardios -->
    <symbol id="sv-i-fatigue" viewBox="0 0 24 24" fill="none" stroke="currentColor" stroke-width="1.8" stroke-linecap="round" stroke-linejoin="round"><rect x="2" y="7" width="18" height="10" rx="2.5"/><path d="M22 11v2"/><path d="M6 10.5v3"/></symbol>
    <symbol id="sv-i-hand" viewBox="0 0 24 24" fill="none" stroke="currentColor" stroke-width="1.8" stroke-linecap="round" stroke-linejoin="round"><path d="M18 11V6a2 2 0 0 0-2-2a2 2 0 0 0-2 2"/><path d="M14 10V4a2 2 0 0 0-2-2a2 2 0 0 0-2 2v2"/><path d="M10 10.5V6a2 2 0 0 0-2-2a2 2 0 0 0-2 2v8"/><path d="M18 8a2 2 0 1 1 4 0v6a8 8 0 0 1-8 8h-2c-2.8 0-4.5-.86-5.99-2.34l-3.6-3.6a2 2 0 0 1 2.83-2.82L7 15"/></symbol>
    <symbol id="sv-i-moon" viewBox="0 0 24 24" fill="none" stroke="currentColor" stroke-width="1.8" stroke-linecap="round" stroke-linejoin="round"><path d="M12 3a6 6 0 0 0 9 9 9 9 0 1 1-9-9Z"/></symbol>
    <symbol id="sv-i-bolt" viewBox="0 0 24 24" fill="none" stroke="currentColor" stroke-width="1.8" stroke-linecap="round" stroke-linejoin="round"><path d="M4 14a1 1 0 0 1-.78-1.63l9.9-10.2a.5.5 0 0 1 .86.46l-1.92 6.02A1 1 0 0 0 13 10h7a1 1 0 0 1 .78 1.63l-9.9 10.2a.5.5 0 0 1-.86-.46l1.92-6.02A1 1 0 0 0 11 14z"/></symbol>
    <symbol id="sv-i-cloud" viewBox="0 0 24 24" fill="none" stroke="currentColor" stroke-width="1.8" stroke-linecap="round" stroke-linejoin="round"><path d="M17.5 19H9a7 7 0 1 1 6.71-9h1.79a4.5 4.5 0 1 1 0 9Z"/></symbol>
    <symbol id="sv-i-heart" viewBox="0 0 24 24" fill="none" stroke="currentColor" stroke-width="1.8" stroke-linecap="round" stroke-linejoin="round"><path d="M19 14c1.49-1.46 3-3.21 3-5.5A5.5 5.5 0 0 0 16.5 3c-1.76 0-3 .5-4.5 2-1.5-1.5-2.74-2-4.5-2A5.5 5.5 0 0 0 2 8.5c0 2.3 1.5 4.05 3 5.5l7 7Z"/></symbol>

    <!-- Emoções -->
    <symbol id="sv-i-smile" viewBox="0 0 24 24" fill="none" stroke="currentColor" stroke-width="1.8" stroke-linecap="round" stroke-linejoin="round"><circle cx="12" cy="12" r="10"/><path d="M8 14s1.5 2 4 2 4-2 4-2"/><path d="M9 9h.01"/><path d="M15 9h.01"/></symbol>
    <symbol id="sv-i-worry" viewBox="0 0 24 24" fill="none" stroke="currentColor" stroke-width="1.8" stroke-linecap="round" stroke-linejoin="round"><path d="M17.5 16H9a6 6 0 1 1 5.7-7.9h2.8a3.95 3.95 0 1 1 0 7.9Z"/><path d="M8 19v2"/><path d="M12 19v2"/><path d="M16 19v2"/></symbol>
    <symbol id="sv-i-users" viewBox="0 0 24 24" fill="none" stroke="currentColor" stroke-width="1.8" stroke-linecap="round" stroke-linejoin="round"><path d="M16 21v-2a4 4 0 0 0-4-4H6a4 4 0 0 0-4 4v2"/><circle cx="9" cy="7" r="4"/><path d="M22 21v-2a4 4 0 0 0-3-3.87"/><path d="M16 3.13a4 4 0 0 1 0 7.75"/></symbol>
    <symbol id="sv-i-lifebuoy" viewBox="0 0 24 24" fill="none" stroke="currentColor" stroke-width="1.8" stroke-linecap="round" stroke-linejoin="round"><circle cx="12" cy="12" r="10"/><circle cx="12" cy="12" r="4"/><path d="m4.93 4.93 4.24 4.24"/><path d="m14.83 9.17 4.24-4.24"/><path d="m14.83 14.83 4.24 4.24"/><path d="m9.17 14.83-4.24 4.24"/></symbol>

    <!-- Exercício -->
    <symbol id="sv-i-walk" viewBox="0 0 24 24" fill="none" stroke="currentColor" stroke-width="1.8" stroke-linecap="round" stroke-linejoin="round"><circle cx="14" cy="4" r="1.6"/><path d="M13 8l-2.5 4.5 3 2.5.5 5.5"/><path d="M10.5 12.5 7 14"/><path d="m13 8 3 2.5 2.5 1"/><path d="m10.5 12.5-1.5 7"/></symbol>
    <symbol id="sv-i-bike" viewBox="0 0 24 24" fill="none" stroke="currentColor" stroke-width="1.8" stroke-linecap="round" stroke-linejoin="round"><circle cx="18.5" cy="17.5" r="3.5"/><circle cx="5.5" cy="17.5" r="3.5"/><circle cx="15" cy="5" r="1"/><path d="M12 17.5V14l-3-3 4-3 2 3h2"/></symbol>
    <symbol id="sv-i-music" viewBox="0 0 24 24" fill="none" stroke="currentColor" stroke-width="1.8" stroke-linecap="round" stroke-linejoin="round"><path d="M9 18V5l12-2v13"/><circle cx="6" cy="18" r="3"/><circle cx="18" cy="16" r="3"/></symbol>
    <symbol id="sv-i-dumbbell" viewBox="0 0 24 24" fill="none" stroke="currentColor" stroke-width="1.8" stroke-linecap="round" stroke-linejoin="round"><path d="M6 7v10"/><path d="M18 7v10"/><path d="M3 10v4"/><path d="M21 10v4"/><path d="M6 12h12"/></symbol>

    <!-- Proteção / vacinas -->
    <symbol id="sv-i-shield" viewBox="0 0 24 24" fill="none" stroke="currentColor" stroke-width="1.8" stroke-linecap="round" stroke-linejoin="round"><path d="M20 13c0 5-3.5 7.5-7.66 8.95a1 1 0 0 1-.67-.01C7.5 20.5 4 18 4 13V6a1 1 0 0 1 1-1c2 0 4.5-1.2 6.24-2.72a1.17 1.17 0 0 1 1.52 0C14.51 3.81 17 5 19 5a1 1 0 0 1 1 1z"/></symbol>
    <symbol id="sv-i-syringe" viewBox="0 0 24 24" fill="none" stroke="currentColor" stroke-width="1.8" stroke-linecap="round" stroke-linejoin="round"><path d="m18 2 4 4"/><path d="m17 7 3-3"/><path d="M19 9 8.7 19.3c-1 1-2.5 1-3.4 0l-.6-.6c-1-1-1-2.5 0-3.4L15 5"/><path d="m9 11 4 4"/><path d="m5 19-3 3"/><path d="m14 4 6 6"/></symbol>
    <symbol id="sv-i-thermometer" viewBox="0 0 24 24" fill="none" stroke="currentColor" stroke-width="1.8" stroke-linecap="round" stroke-linejoin="round"><path d="M14 4v10.54a4 4 0 1 1-4 0V4a2 2 0 0 1 4 0Z"/></symbol>
    <symbol id="sv-i-virus" viewBox="0 0 24 24" fill="none" stroke="currentColor" stroke-width="1.8" stroke-linecap="round" stroke-linejoin="round"><circle cx="12" cy="12" r="5"/><path d="M12 2v3"/><path d="M12 19v3"/><path d="M2 12h3"/><path d="M19 12h3"/><path d="m4.9 4.9 2.1 2.1"/><path d="m17 17 2.1 2.1"/><path d="M4.9 19.1 7 17"/><path d="m17 7 2.1-2.1"/></symbol>
    <symbol id="sv-i-lungs" viewBox="0 0 24 24" fill="none" stroke="currentColor" stroke-width="1.8" stroke-linecap="round" stroke-linejoin="round"><path d="M12 3v9"/><path d="M12 9c-2 0-3.5 1-4.5 3C6 15 5 17.5 5 19.3c0 1 .9 1.7 2 1.7 2 0 3-1.2 3.5-2.8L12 14"/><path d="M12 9c2 0 3.5 1 4.5 3 1.5 3 2.5 5.5 2.5 7.3 0 1-.9 1.7-2 1.7-2 0-3-1.2-3.5-2.8L12 14"/></symbol>
    <symbol id="sv-i-flame" viewBox="0 0 24 24" fill="none" stroke="currentColor" stroke-width="1.8" stroke-linecap="round" stroke-linejoin="round"><path d="M8.5 14.5A2.5 2.5 0 0 0 11 12c0-1.38-.5-2-1-3-1.072-2.143-.224-4.054 2-6 .5 2.5 2 4.9 4 6.5 2 1.6 3 3.5 3 5.5a7 7 0 1 1-14 0c0-1.153.433-2.294 1-3a2.5 2.5 0 0 0 2.5 2.5z"/></symbol>

    <!-- Plano de sobrevivência -->
    <symbol id="sv-i-file" viewBox="0 0 24 24" fill="none" stroke="currentColor" stroke-width="1.8" stroke-linecap="round" stroke-linejoin="round"><path d="M15 2H6a2 2 0 0 0-2 2v16a2 2 0 0 0 2 2h12a2 2 0 0 0 2-2V7Z"/><path d="M14 2v4a2 2 0 0 0 2 2h4"/><path d="M10 9H8"/><path d="M16 13H8"/><path d="M16 17H8"/></symbol>
    <symbol id="sv-i-pill" viewBox="0 0 24 24" fill="none" stroke="currentColor" stroke-width="1.8" stroke-linecap="round" stroke-linejoin="round"><path d="m10.5 20.5 10-10a4.95 4.95 0 1 0-7-7l-10 10a4.95 4.95 0 1 0 7 7Z"/><path d="m8.5 8.5 7 7"/></symbol>
    <symbol id="sv-i-activity" viewBox="0 0 24 24" fill="none" stroke="currentColor" stroke-width="1.8" stroke-linecap="round" stroke-linejoin="round"><path d="M22 12h-2.48a2 2 0 0 0-1.93 1.46l-2.35 8.36a.25.25 0 0 1-.48 0L9.24 2.18a.25.25 0 0 0-.48 0l-2.35 8.36A2 2 0 0 1 4.49 12H2"/></symbol>
    <symbol id="sv-i-calendar" viewBox="0 0 24 24" fill="none" stroke="currentColor" stroke-width="1.8" stroke-linecap="round" stroke-linejoin="round"><path d="M8 2v4"/><path d="M16 2v4"/><rect x="3" y="4" width="18" height="18" rx="2"/><path d="M3 10h18"/><path d="m9 16 2 2 4-4"/></symbol>
    <symbol id="sv-i-sun" viewBox="0 0 24 24" fill="none" stroke="currentColor" stroke-width="1.8" stroke-linecap="round" stroke-linejoin="round"><circle cx="12" cy="12" r="4"/><path d="M12 2v2"/><path d="M12 20v2"/><path d="m4.93 4.93 1.41 1.41"/><path d="m17.66 17.66 1.41 1.41"/><path d="M2 12h2"/><path d="M20 12h2"/><path d="m6.34 17.66-1.41 1.41"/><path d="m19.07 4.93-1.41 1.41"/></symbol>

    <!-- Interface -->
    <symbol id="sv-i-star" viewBox="0 0 24 24" fill="none" stroke="currentColor" stroke-width="1.8" stroke-linecap="round" stroke-linejoin="round"><path d="M11.525 2.295a.53.53 0 0 1 .95 0l2.31 4.679a2.123 2.123 0 0 0 1.595 1.16l5.166.756a.53.53 0 0 1 .294.904l-3.736 3.638a2.123 2.123 0 0 0-.611 1.878l.882 5.14a.53.53 0 0 1-.771.56l-4.618-2.428a2.122 2.122 0 0 0-1.973 0L6.396 21.01a.53.53 0 0 1-.77-.56l.881-5.139a2.122 2.122 0 0 0-.611-1.879L2.16 9.795a.53.53 0 0 1 .294-.906l5.165-.755a2.122 2.122 0 0 0 1.597-1.16z"/></symbol>
    <symbol id="sv-i-arrow" viewBox="0 0 24 24" fill="none" stroke="currentColor" stroke-width="1.8" stroke-linecap="round" stroke-linejoin="round"><path d="M5 12h14"/><path d="m12 5 7 7-7 7"/></symbol>
    <symbol id="sv-i-check" viewBox="0 0 24 24" fill="none" stroke="currentColor" stroke-width="2.4" stroke-linecap="round" stroke-linejoin="round"><path d="M20 6 9 17l-5-5"/></symbol>
    <symbol id="sv-i-printer" viewBox="0 0 24 24" fill="none" stroke="currentColor" stroke-width="1.8" stroke-linecap="round" stroke-linejoin="round"><path d="M6 9V2h12v7"/><path d="M6 18H4a2 2 0 0 1-2-2v-5a2 2 0 0 1 2-2h16a2 2 0 0 1 2 2v5a2 2 0 0 1-2 2h-2"/><rect x="6" y="14" width="12" height="8"/></symbol>
    <symbol id="sv-i-info" viewBox="0 0 24 24" fill="none" stroke="currentColor" stroke-width="1.8" stroke-linecap="round" stroke-linejoin="round"><circle cx="12" cy="12" r="10"/><path d="M12 16v-4"/><path d="M12 8h.01"/></symbol>
    <symbol id="sv-i-pointer" viewBox="0 0 24 24" fill="none" stroke="currentColor" stroke-width="1.8" stroke-linecap="round" stroke-linejoin="round"><path d="M14 4.1 12 6"/><path d="m5.1 8-2.9-.8"/><path d="m6 12-1.9 2"/><path d="M7.2 2.2 8 5.1"/><path d="M9.037 9.69a.498.498 0 0 1 .653-.653l11 4.5a.5.5 0 0 1-.074.949l-4.349 1.041a1 1 0 0 0-.74.739l-1.04 4.35a.5.5 0 0 1-.95.074z"/></symbol>
  </defs>
</svg>
